<?xml version="1.0" encoding="utf-8"?>
<!-- Generator: Adobe Illustrator 22.1.0, SVG Export Plug-In . SVG Version: 6.00 Build 0)  -->
<svg version="1.1" id="Layer_1" xmlns="http://www.w3.org/2000/svg" xmlns:xlink="http://www.w3.org/1999/xlink" x="0px" y="0px"
	 viewBox="0 0 5000 5000" fill="white" style="enable-background:new 0 0 5000 5000;" xml:space="preserve">

<g>
	<path id="Blue" class="st0" d="M1414,3763.2c-681.2-591.1-240.6-1907.1,806.6-1741.5v121.9C1336.2,2102.4,946.9,3157.4,1414,3763.2
		z M3324.2,1480.2c107.6,86,256,149.4,460.6,161.5v119.4C3558.4,1719.3,3415,1606.8,3324.2,1480.2z M3040.2,851.6
		c-0.2,44.1,5.6,91.4,12.8,134.6h-417.5v2078.6c0,95.8-9.8,181.2-29.5,256c-170,374.7-651.4,325.8-784.4,68.6
		c198,124,523.7,91.1,657.3-203.2c19.5-74.7,29.3-160.2,29.3-256V851.6H3040.2z"/>
	<path id="Black" class="st1" d="M3167.5,986.2v2.7c0.2,48.1,14.2,744,744.6,787.5c0,647.4,0.3,0,0.3,537.7
		c-54.9,3.3-480.7-27.5-745.7-263.9l-0.8,1046.8c6.6,474-257.3,938.8-751.3,1032.5c-138.4,26.2-263,29.2-472.2-16.5
		C737.3,3752.4,1137.7,1965,2347.7,2156.3c0,577,0.3-0.2,0.3,577c-499.9-73.5-667.1,342.3-534.3,640.1
		c120.9,271.1,618.6,329.9,792.2-52.6c19.7-74.8,29.5-160.2,29.5-256V986.2H3167.5z"/>
	<path id="Red" class="st2" d="M2220.7,2143.6c41.3,1.8,83.7,5.9,127.1,12.8c0,577,0.3-0.2,0.3,577
		c-499.9-73.5-667.1,342.3-534.3,640.1c2.4,5.4,5.1,10.8,7.8,16.1c-59.4-37.2-107.3-88.3-135.1-150.7
		c-132.7-297.8,34.4-713.6,534.2-640.1C2220.8,2069.9,2220.7,2509.9,2220.7,2143.6z M3784.8,1761.2c39.8,7.3,82.2,12.6,127.3,15.2
		c0,647.4,0.3,0,0.3,537.7c-54.9,3.3-480.7-27.5-745.7-263.9l-0.8,1046.8c6.6,474-257.3,938.8-751.3,1032.5
		c-138.4,26.2-263,29.2-472.2-16.5c-235.5-70.4-409.4-195.6-528.3-349.7c105.9,92,238.9,166.6,401.3,215.2
		c209,45.5,333.6,42.6,472,16.4c494-93.7,757.8-558.5,751.4-1032.3l0.7-1046.9c265,236.4,690.8,267.3,745.9,263.9
		C3785.3,1680.1,3784.8,2202.7,3784.8,1761.2z M3167.5,986.2v2.7c0,28.3,5.1,279.6,156.7,491.3c-182.8-146.2-248-357.5-271.2-494
		H3167.5z"/>
</g>
</svg>
